<svg width="24" height="24" viewBox="0 0 24 24" fill="none" xmlns="http://www.w3.org/2000/svg">
<path fill-rule="evenodd" clip-rule="evenodd" d="M7 4C5.34315 4 4 5.34315 4 7V17C4 18.6569 5.34315 20 7 20H16.6515C18.3083 20 19.6515 18.6569 19.6515 17V7C19.6515 5.34315 18.3083 4 16.6515 4H7ZM16.5088 8.91117C17.1737 8.91117 17.7127 8.37709 17.7127 7.71828C17.7127 7.05946 17.1737 6.52539 16.5088 6.52539C15.8438 6.52539 15.3048 7.05946 15.3048 7.71828C15.3048 8.37709 15.8438 8.91117 16.5088 8.91117ZM7.81113 11.9998C7.81113 9.77387 9.62697 8.00195 11.827 8.00195C14.027 8.00195 15.8428 9.77386 15.8428 11.9998C15.8428 14.2258 14.027 15.9977 11.827 15.9977C9.62697 15.9977 7.81113 14.2258 7.81113 11.9998ZM11.827 9.23272C10.2561 9.23272 9.01509 10.4896 9.01509 11.9998C9.01509 13.5101 10.2561 14.7669 11.827 14.7669C13.3978 14.7669 14.6389 13.51 14.6389 11.9998C14.6389 10.4896 13.3978 9.23272 11.827 9.23272Z" fill="#000000"/>
</svg>
